#!OML:ASF G:\JayActor3\Patient Classification 1\Patient 1\Session 5\male.ASF
:FULLY-SPECIFIED
:DEGREES
883
root 30.0118 14.0132 -4.2265 208.463 83.7987 196.659
lowerback 32.449 -2.84626 3.61487
upperback 6.10059 -1.68735 0.0423896
thorax -10.0508 -0.575305 -1.31146
lowerneck -7.0536 -0.855576 0.610705
upperneck -6.74576 -0.900589 2.59984
head -0.901145 -0.395886 0.682444
rclavicle 6.06293e-015 -4.96962e-015
rhumerus -22.1813 4.23629 -84.839
rradius 43.8162
rwrist -4.92485
rhand -21.2318 -8.66581
rfingers 7.12502
rthumb 5.15051 -38.5832
lclavicle 6.06293e-015 -4.96962e-015
lhumerus -24.1572 -8.49671 83.2061
lradius 43.4013
lwrist 24.3302
lhand -17.2973 11.2941
lfingers 7.12502
lthumb 8.94847 41.0843
rfemur -52.4415 1.67128 28.6201
rtibia 81.5797
rfoot -39.2803 -15.8314
rtoes -1.30075
lfemur -73.0344 5.86143 -27.2492
ltibia 57.8809
lfoot -17.0318 5.97018
ltoes -23.0435
884
root 30.1314 14.007 -4.23428 209.308 83.8717 197.439
lowerback 32.3399 -2.80602 3.62433
upperback 6.09382 -1.64184 0.0530573
thorax -10.0126 -0.556369 -1.32408
lowerneck -7.06341 -0.844441 0.635979
upperneck -6.73133 -0.888986 2.57223
head -0.895422 -0.390404 0.669766
rclavicle -2.6339e-014 -2.46493e-014
rhumerus -22.2141 4.40013 -84.8725
rradius 43.8533
rwrist -4.93668
rhand -21.1813 -8.66438
rfingers 7.12502
rthumb 5.19925 -38.5806
lclavicle -2.6339e-014 -2.46493e-014
lhumerus -24.2083 -8.48535 83.2055
lradius 43.3294
lwrist 24.3345
lhand -17.2875 11.2613
lfingers 7.12502
lthumb 8.95796 41.0511
rfemur -52.0274 1.53831 28.7549
rtibia 81.714
rfoot -39.5194 -15.6963
rtoes -1.96367
lfemur -72.8549 5.76889 -27.2197
ltibia 56.5591
lfoot -17.1215 6.0761
ltoes -23.0206
885
root 30.2517 13.9988 -4.24356 210.134 83.9588 198.215
lowerback 32.242 -2.76324 3.62233
upperback 6.08721 -1.59652 0.0607062
thorax -9.97852 -0.537164 -1.33342
lowerneck -7.06743 -0.834832 0.651641
upperneck -6.71518 -0.878518 2.55632
head -0.890002 -0.38542 0.662298
rclavicle -2.09718e-014 -1.90833e-014
rhumerus -22.2422 4.54554 -84.9026
rradius 43.8746
rwrist -4.93382
rhand -21.1363 -8.65116
rfingers 7.12502
rthumb 5.2427 -38.5663
lclavicle -2.09718e-014 -1.90833e-014
lhumerus -24.2578 -8.46741 83.2034
lradius 43.2517
lwrist 24.3317
lhand -17.2736 11.2247
lfingers 7.12502
lthumb 8.97134 41.0139
rfemur -51.6139 1.40669 28.8677
rtibia 81.8834
rfoot -39.7118 -15.5717
rtoes -2.78694
lfemur -72.6525 5.63559 -27.089
ltibia 55.4853
lfoot -17.177 6.1873
ltoes -22.9037
886
root 30.3727 13.9881 -4.25443 210.904 84.0609 198.948
lowerback 32.1542 -2.71857 3.60618
upperback 6.08245 -1.55332 0.0629036
thorax -9.94635 -0.518421 -1.33998
lowerneck -7.06344 -0.826015 0.666372
upperneck -6.70035 -0.868883 2.54445
head -0.886259 -0.380978 0.656271
rclavicle 5.96354e-016 3.77691e-015
rhumerus -22.2618 4.67025 -84.9306
rradius 43.8798
rwrist -4.91813
rhand -21.0862 -8.64171
rfingers 7.12502
rthumb 5.2911 -38.5557
lclavicle 5.96354e-016 3.77691e-015
lhumerus -24.3025 -8.44486 83.1968
lradius 43.1713
lwrist 24.3274
lhand -17.2602 11.1901
lfingers 7.12502
lthumb 8.98422 40.9788
rfemur -51.2076 1.27999 28.95
rtibia 82.0983
rfoot -39.8653 -15.4434
rtoes -3.73385
lfemur -72.4269 5.45893 -26.8628
ltibia 54.6614
lfoot -17.2084 6.30457
ltoes -22.6941
887
root 30.4947 13.9748 -4.26701 211.649 84.1814 199.667
lowerback 32.0765 -2.67068 3.57973
upperback 6.07891 -1.50945 0.0586393
thorax -9.91686 -0.499019 -1.34789
lowerneck -7.05117 -0.819999 0.673005
upperneck -6.68942 -0.861877 2.54459
head -0.884951 -0.377841 0.655309
rclavicle 6.36111e-015 -2.28602e-014
rhumerus -22.2777 4.76694 -84.9569
rradius 43.8705
rwrist -4.89208
rhand -21.047 -8.6339
rfingers 7.12502
rthumb 5.329 -38.5469
lclavicle 6.36111e-015 -2.28602e-014
lhumerus -24.3402 -8.4247 83.1869
lradius 43.0869
lwrist 24.3168
lhand -17.2525 11.1833
lfingers 7.12502
lthumb 8.99172 40.9717
rfemur -50.8141 1.16542 28.9996
rtibia 82.3665
rfoot -39.9702 -15.3036
rtoes -4.80264
lfemur -72.1741 5.24599 -26.55
ltibia 54.0755
lfoot -17.2185 6.43166
ltoes -22.4324
888
root 30.6178 13.9593 -4.28132 212.362 84.3186 200.37
lowerback 32.0125 -2.62078 3.54619
upperback 6.07789 -1.46496 0.0478601
thorax -9.8901 -0.478925 -1.35888
lowerneck -7.03474 -0.817235 0.67091
upperneck -6.67822 -0.85847 2.55227
head -0.884133 -0.37642 0.658088
rclavicle -1.2921e-014 -3.95581e-014
rhumerus -22.2891 4.83588 -84.9799
rradius 43.8473
rwrist -4.86369
rhand -21.021 -8.62711
rfingers 7.12502
rthumb 5.35409 -38.5395
lclavicle -1.2921e-014 -3.95581e-014
lhumerus -24.3686 -8.40758 83.1742
lradius 42.9954
lwrist 24.3041
lhand -17.2451 11.1786
lfingers 7.12502
lthumb 8.99884 40.9666
rfemur -50.4299 1.06673 29.0137
rtibia 82.691
rfoot -40.0418 -15.1381
rtoes -5.92801
lfemur -71.8782 5.00002 -26.1608
ltibia 53.707
lfoot -17.2214 6.56007
ltoes -22.1431
889
root 30.7422 13.9422 -4.29755 213.055 84.4731 201.071
lowerback 31.9606 -2.57101 3.50929
upperback 6.08214 -1.42139 0.0292326
thorax -9.86257 -0.458785 -1.37584
lowerneck -7.02318 -0.813769 0.668395
upperneck -6.66352 -0.854431 2.5562
head -0.881462 -0.374601 0.659743
rclavicle 7.95139e-016 -9.54166e-015
rhumerus -22.2946 4.87727 -85.0021
rradius 43.8163
rwrist -4.83383
rhand -21.004 -8.63841
rfingers 7.12502
rthumb 5.37051 -38.5504
lclavicle 7.95139e-016 -9.54166e-015
lhumerus -24.3838 -8.38857 83.1556
lradius 42.8978
lwrist 24.2851
lhand -17.2329 11.1834
lfingers 7.12502
lthumb 9.01065 40.9709
rfemur -50.0561 0.982072 28.9912
rtibia 83.0717
rfoot -40.0718 -14.9314
rtoes -7.07323
lfemur -71.5322 4.73249 -25.7225
ltibia 53.5361
lfoot -17.2147 6.70745
ltoes -21.8672
890
root 30.8675 13.9241 -4.31562 213.779 84.6452 201.816
lowerback 31.9216 -2.52041 3.47124
upperback 6.0881 -1.37681 0.0048345
thorax -9.83845 -0.437987 -1.39842
lowerneck -7.01354 -0.809089 0.665571
upperneck -6.64412 -0.849451 2.5495
head -0.877069 -0.372268 0.658152
rclavicle -7.15625e-015 1.82882e-014
rhumerus -22.2961 4.89414 -85.0232
rradius 43.7727
rwrist -4.80295
rhand -21.0122 -8.64893
rfingers 7.12502
rthumb 5.36253 -38.5611
lclavicle -7.15625e-015 1.82882e-014
lhumerus -24.3895 -8.36722 83.1333
lradius 42.7925
lwrist 24.2617
lhand -17.2222 11.2005
lfingers 7.12502
lthumb 9.02093 40.9876
rfemur -49.695 0.911821 28.9349
rtibia 83.5015
rfoot -40.0596 -14.6648
rtoes -8.18611
lfemur -71.1549 4.47577 -25.293
ltibia 53.5587
lfoot -17.1368 6.96055
ltoes -21.719
891
root 30.9935 13.9061 -4.3355 214.52 84.8307 202.582
lowerback 31.8895 -2.47218 3.43532
upperback 6.09267 -1.33491 -0.0256323
thorax -9.81893 -0.418557 -1.4274
lowerneck -7.00481 -0.802181 0.658708
upperneck -6.61941 -0.841853 2.53516
head -0.870919 -0.368523 0.654872
rclavicle -1.21259e-014 -1.76918e-014
rhumerus -22.2942 4.88369 -85.0446
rradius 43.7234
rwrist -4.77001
rhand -21.0296 -8.66179
rfingers 7.12502
rthumb 5.34575 -38.5744
lclavicle -1.21259e-014 -1.76918e-014
lhumerus -24.3877 -8.33807 83.1062
lradius 42.6896
lwrist 24.2277
lhand -17.2215 11.3035
lfingers 7.12502
lthumb 9.02165 41.0906
rfemur -49.3515 0.846394 28.8451
rtibia 83.9559
rfoot -39.9801 -14.3391
rtoes -9.27898
lfemur -70.777 4.26511 -24.9418
ltibia 53.7552
lfoot -16.9553 7.34569
ltoes -21.6729
892
root 31.1193 13.8889 -4.35707 215.237 85.0289 203.318
lowerback 31.8584 -2.42589 3.39796
upperback 6.09389 -1.29678 -0.0611901
thorax -9.80385 -0.40108 -1.45952
lowerneck -6.99838 -0.79193 0.649739
upperneck -6.59013 -0.830451 2.507
head -0.863058 -0.362778 0.6477
rclavicle -6.06293e-015 4.96962e-015
rhumerus -22.2829 4.85 -85.0641
rradius 43.6644
rwrist -4.73868
rhand -21.0572 -8.66952
rfingers 7.12502
rthumb 5.3191 -38.5828
lclavicle -6.06293e-015 4.96962e-015
lhumerus -24.3777 -8.29601 83.0759
lradius 42.5789
lwrist 24.1897
lhand -17.2287 11.3992
lfingers 7.12502
lthumb 9.01462 41.1866
rfemur -49.0338 0.777664 28.7201
rtibia 84.4364
rfoot -39.8452 -13.9632
rtoes -10.3564
lfemur -70.4713 4.13085 -24.7184
ltibia 54.18
lfoot -16.7572 7.79
ltoes -21.6398
